<?xml version="1.0" encoding="UTF-8" standalone="no"?>
<!-- Generator: Adobe Illustrator 12.0.0, SVG Export Plug-In . SVG Version: 6.00 Build 51448)  -->

<svg
   version="1.0"
   id="Layer_1"
   width="200"
   height="200"
   viewBox="0 0 200 200"
   overflow="visible"
   enable-background="new 0 0 695.817 416.584"
   xml:space="preserve"
   sodipodi:version="0.32"
   inkscape:version="1.3 (0e150ed6c4, 2023-07-21)"
   sodipodi:docname="3-phase-3-wire-delta.svg"
   xmlns:inkscape="http://www.inkscape.org/namespaces/inkscape"
   xmlns:sodipodi="http://sodipodi.sourceforge.net/DTD/sodipodi-0.dtd"
   xmlns="http://www.w3.org/2000/svg"
   xmlns:svg="http://www.w3.org/2000/svg"
   xmlns:rdf="http://www.w3.org/1999/02/22-rdf-syntax-ns#"
   xmlns:cc="http://creativecommons.org/ns#"
   xmlns:dc="http://purl.org/dc/elements/1.1/"><metadata
   id="metadata1725"><rdf:RDF><cc:Work
       rdf:about=""><dc:format>image/svg+xml</dc:format><dc:type
         rdf:resource="http://purl.org/dc/dcmitype/StillImage" /></cc:Work></rdf:RDF></metadata><defs
   id="defs1723"><marker
   id="ArrowEnd"
   viewBox="0 0 10 10"
   refX="0"
   refY="5"
   markerUnits="strokeWidth"
   markerWidth="4"
   markerHeight="3"
   orient="auto"><path
     d="M 0,0 10,5 0,10 Z"
     id="path7" /></marker><marker
   id="ArrowStart"
   viewBox="0 0 10 10"
   refX="10"
   refY="5"
   markerUnits="strokeWidth"
   markerWidth="4"
   markerHeight="3"
   orient="auto"><path
     d="M 10,0 0,5 10,10 Z"
     id="path10" /></marker>&#10;		&#10;		&#10;	&#10;	&#10;	&#10;	&#10;	&#10;	&#10;		&#10;	&#10;		&#10;	&#10;		&#10;	&#10;	&#10;		&#10;	&#10;		&#10;	&#10;	&#10;	&#10;</defs><sodipodi:namedview
   inkscape:window-height="1052"
   inkscape:window-width="1874"
   inkscape:pageshadow="2"
   inkscape:pageopacity="0.0"
   borderopacity="1.0"
   bordercolor="#666666"
   pagecolor="#ffffff"
   id="base"
   inkscape:zoom="2.0292692"
   inkscape:cx="98.06486"
   inkscape:cy="143.89417"
   inkscape:window-x="0"
   inkscape:window-y="0"
   inkscape:current-layer="Layer_1"
   inkscape:showpageshadow="0"
   inkscape:pagecheckerboard="0"
   inkscape:deskcolor="#d1d1d1"
   inkscape:window-maximized="1"><inkscape:page
     x="0"
     y="0"
     width="200"
     height="200"
     id="page13"
     margin="0"
     bleed="0" /></sodipodi:namedview>&#10;&#10;&#10;&#10;<g
   id="g1"
   transform="matrix(1.3333333,0,0,1.3333333,-33.333333,-57.152109)"
   style="stroke-width:0.75"><g
     id="g1596"
     transform="matrix(0.46102637,0,0,0.46102637,25,27.321039)"
     style="stroke-width:1.6268">&#10;	&#10;	&#10;	&#10;		&#10;	&#10;		&#10;	<g
   id="g1606"
   style="stroke-width:1.6268">&#10;		<path
   d="m 17.509,308.029 c 0,1.94 0.093,3.835 0.324,5.359 h -3.65 l -0.37,-2.818 h -0.139 c -1.201,1.756 -3.649,3.326 -6.837,3.326 -4.528,0 -6.837,-3.188 -6.837,-6.421 0,-5.406 4.805,-8.362 13.444,-8.316 v -0.462 c 0,-1.848 -0.508,-5.221 -5.082,-5.175 -2.125,0 -4.296,0.601 -5.867,1.663 l -0.924,-2.726 c 1.848,-1.155 4.574,-1.94 7.392,-1.94 6.884,0 8.547,4.666 8.547,9.147 v 8.363 z m -3.973,-6.052 c -4.435,-0.093 -9.471,0.692 -9.471,5.035 0,2.68 1.755,3.881 3.789,3.881 2.957,0 4.851,-1.848 5.498,-3.742 0.139,-0.415 0.185,-0.878 0.185,-1.293 v -3.881 z"
   id="path1608"
   style="stroke-width:1.6268" />&#10;	</g>&#10;	<g
   id="g1610"
   style="stroke-width:1.6268">&#10;		<path
   d="m 304.156,280.586 h 4.065 v 13.998 h 0.092 c 1.433,-2.494 4.02,-4.065 7.623,-4.065 5.544,0 9.425,4.62 9.425,11.365 0,8.039 -5.082,12.012 -10.071,12.012 -3.234,0 -5.775,-1.247 -7.484,-4.204 h -0.093 l -0.23,3.696 h -3.512 c 0.139,-1.524 0.186,-3.788 0.186,-5.775 v -27.027 z m 4.065,23.839 c 0,0.509 0.046,1.017 0.139,1.479 0.785,2.818 3.188,4.759 6.098,4.759 4.297,0 6.792,-3.465 6.792,-8.594 0,-4.527 -2.311,-8.361 -6.653,-8.361 -2.771,0 -5.359,1.939 -6.145,4.989 -0.139,0.508 -0.23,1.063 -0.23,1.709 v 4.019 z"
   id="path1612"
   style="stroke-width:1.6268" />&#10;	</g>&#10;	<g
   id="g1614"
   style="stroke-width:1.6268">&#10;		<path
   d="m 168.894,57.453 c -1.063,0.508 -3.419,1.294 -6.422,1.294 -6.745,0 -11.134,-4.574 -11.134,-11.458 0,-6.884 4.712,-11.92 12.012,-11.92 2.402,0 4.527,0.601 5.637,1.202 l -0.925,3.095 c -0.97,-0.508 -2.494,-1.063 -4.712,-1.063 -5.128,0 -7.9,3.834 -7.9,8.5 0,5.174 3.326,8.362 7.762,8.362 2.31,0 3.835,-0.554 4.989,-1.063 z"
   id="path1616"
   style="stroke-width:1.6268" />&#10;	</g>&#10;	<g
   id="g1618"
   style="stroke-width:1.6268">&#10;		<path
   d="m 27.094,140.961 c 2.033,-0.416 4.99,-0.693 7.715,-0.693 4.296,0 7.115,0.832 9.055,2.587 1.524,1.34 2.449,3.465 2.449,5.914 0,4.066 -2.634,6.792 -5.868,7.9 v 0.139 c 2.356,0.831 3.789,3.049 4.574,6.283 1.017,4.343 1.756,7.346 2.356,8.547 h -4.158 c -0.508,-0.878 -1.201,-3.558 -2.033,-7.438 -0.924,-4.296 -2.633,-5.913 -6.283,-6.052 h -3.788 v 13.49 h -4.02 v -30.677 z m 4.02,14.138 h 4.112 c 4.296,0 7.022,-2.356 7.022,-5.914 0,-4.02 -2.911,-5.775 -7.161,-5.775 -1.94,0 -3.28,0.185 -3.973,0.37 z"
   id="path1620"
   style="stroke-width:1.6268" />&#10;		<path
   d="m 59.589,183.899 c 0,1.131 0.054,2.235 0.188,3.124 H 57.65 l -0.215,-1.643 h -0.081 c -0.701,1.023 -2.128,1.938 -3.986,1.938 -2.64,0 -3.986,-1.858 -3.986,-3.743 0,-3.151 2.801,-4.876 7.838,-4.849 v -0.27 c 0,-1.077 -0.296,-3.043 -2.963,-3.017 -1.239,0 -2.505,0.351 -3.421,0.97 l -0.539,-1.589 c 1.078,-0.674 2.667,-1.132 4.31,-1.132 4.013,0 4.983,2.721 4.983,5.333 v 4.878 z m -2.316,-3.529 c -2.585,-0.054 -5.521,0.404 -5.521,2.937 0,1.563 1.023,2.263 2.208,2.263 1.724,0 2.828,-1.078 3.206,-2.182 0.081,-0.243 0.107,-0.512 0.107,-0.755 z"
   id="path1622"
   style="stroke-width:1.6268" />&#10;		<path
   d="m 72.68,186.565 c -0.62,0.297 -1.993,0.754 -3.744,0.754 -3.932,0 -6.491,-2.666 -6.491,-6.68 0,-4.013 2.748,-6.949 7.003,-6.949 1.401,0 2.64,0.351 3.286,0.7 l -0.539,1.805 c -0.566,-0.296 -1.455,-0.619 -2.748,-0.619 -2.99,0 -4.605,2.235 -4.605,4.956 0,3.017 1.939,4.875 4.525,4.875 1.347,0 2.235,-0.323 2.909,-0.619 z"
   id="path1624"
   style="stroke-width:1.6268" />&#10;	</g>&#10;	<g
   id="g1626"
   style="stroke-width:1.6268">&#10;		<path
   d="m 140.494,311.062 c 2.033,-0.416 4.99,-0.693 7.716,-0.693 4.297,0 7.114,0.832 9.055,2.588 1.525,1.34 2.449,3.465 2.449,5.913 0,4.065 -2.634,6.792 -5.867,7.9 v 0.139 c 2.355,0.831 3.788,3.049 4.573,6.283 1.017,4.343 1.756,7.346 2.356,8.547 h -4.158 c -0.508,-0.878 -1.201,-3.558 -2.032,-7.438 -0.925,-4.296 -2.634,-5.913 -6.283,-6.052 h -3.789 v 13.49 h -4.02 z m 4.019,14.138 h 4.112 c 4.296,0 7.022,-2.356 7.022,-5.914 0,-4.02 -2.911,-5.775 -7.161,-5.775 -1.94,0 -3.28,0.186 -3.974,0.37 V 325.2 Z"
   id="path1628"
   style="stroke-width:1.6268" />&#10;		<path
   d="m 172.99,354 c 0,1.131 0.054,2.235 0.188,3.124 h -2.128 l -0.216,-1.643 h -0.081 c -0.7,1.023 -2.128,1.938 -3.986,1.938 -2.64,0 -3.986,-1.858 -3.986,-3.743 0,-3.151 2.802,-4.876 7.838,-4.849 v -0.27 c 0,-1.077 -0.296,-3.043 -2.963,-3.017 -1.238,0 -2.505,0.351 -3.42,0.97 l -0.539,-1.589 c 1.077,-0.674 2.667,-1.132 4.31,-1.132 4.014,0 4.983,2.721 4.983,5.333 z m -2.317,-3.53 c -2.586,-0.054 -5.522,0.404 -5.522,2.937 0,1.563 1.024,2.263 2.209,2.263 1.724,0 2.828,-1.078 3.205,-2.182 0.081,-0.243 0.108,-0.512 0.108,-0.755 z"
   id="path1630"
   style="stroke-width:1.6268" />&#10;		<path
   d="m 176.787,338 h 2.371 v 8.161 h 0.054 c 0.835,-1.454 2.343,-2.37 4.444,-2.37 3.231,0 5.494,2.693 5.494,6.626 0,4.687 -2.963,7.003 -5.872,7.003 -1.885,0 -3.366,-0.727 -4.363,-2.45 h -0.054 l -0.135,2.154 h -2.047 c 0.081,-0.889 0.107,-2.209 0.107,-3.367 V 338 Z m 2.371,13.898 c 0,0.297 0.026,0.593 0.08,0.862 0.458,1.643 1.858,2.774 3.556,2.774 2.505,0 3.959,-2.021 3.959,-5.01 0,-2.64 -1.347,-4.876 -3.878,-4.876 -1.616,0 -3.125,1.132 -3.583,2.909 -0.08,0.297 -0.134,0.62 -0.134,0.997 z"
   id="path1632"
   style="stroke-width:1.6268" />&#10;	</g>&#10;	<g
   id="g1634"
   style="stroke-width:1.6268">&#10;		<path
   d="m 241.293,140.961 c 2.033,-0.416 4.99,-0.693 7.716,-0.693 4.297,0 7.115,0.832 9.055,2.587 1.525,1.34 2.449,3.465 2.449,5.914 0,4.066 -2.634,6.792 -5.867,7.9 v 0.139 c 2.355,0.831 3.788,3.049 4.573,6.283 1.017,4.343 1.756,7.346 2.356,8.547 h -4.158 c -0.508,-0.878 -1.201,-3.558 -2.032,-7.438 -0.925,-4.296 -2.634,-5.913 -6.283,-6.052 h -3.789 v 13.49 h -4.02 z m 4.02,14.138 h 4.112 c 4.296,0 7.022,-2.356 7.022,-5.914 0,-4.02 -2.911,-5.775 -7.161,-5.775 -1.94,0 -3.28,0.185 -3.974,0.37 v 11.319 z"
   id="path1636"
   style="stroke-width:1.6268" />&#10;		<path
   d="m 264.604,167.899 h 2.371 v 8.162 h 0.054 c 0.835,-1.455 2.343,-2.371 4.444,-2.371 3.231,0 5.494,2.693 5.494,6.626 0,4.687 -2.963,7.003 -5.872,7.003 -1.885,0 -3.366,-0.727 -4.363,-2.45 h -0.054 l -0.135,2.154 h -2.047 c 0.081,-0.889 0.107,-2.209 0.107,-3.367 v -15.757 z m 2.371,13.898 c 0,0.297 0.026,0.593 0.08,0.862 0.458,1.643 1.858,2.774 3.556,2.774 2.505,0 3.959,-2.021 3.959,-5.01 0,-2.64 -1.347,-4.876 -3.878,-4.876 -1.616,0 -3.125,1.132 -3.583,2.909 -0.08,0.297 -0.134,0.62 -0.134,0.997 z"
   id="path1638"
   style="stroke-width:1.6268" />&#10;		<path
   d="m 289.249,186.565 c -0.619,0.297 -1.993,0.754 -3.744,0.754 -3.933,0 -6.491,-2.666 -6.491,-6.68 0,-4.013 2.747,-6.949 7.003,-6.949 1.4,0 2.64,0.351 3.286,0.7 l -0.539,1.805 c -0.565,-0.296 -1.454,-0.619 -2.747,-0.619 -2.989,0 -4.605,2.235 -4.605,4.956 0,3.017 1.939,4.875 4.524,4.875 1.347,0 2.236,-0.323 2.909,-0.619 z"
   id="path1640"
   style="stroke-width:1.6268" />&#10;	</g>&#10;	<path
   fill="none"
   stroke="#0f298f"
   stroke-width="3.4163"
   d="M 160.333,297.638"
   id="path1642" />&#10;	<path
   fill="none"
   stroke="#0f298f"
   stroke-width="3.4163"
   d="M 225.833,184.189"
   id="path1644" />&#10;</g><path
     style="fill:none;stroke:#bf0000;stroke-width:2.1;stroke-linecap:round;stroke-dasharray:none;stroke-opacity:1"
     d="m 159.3285,164.58518 h -49.37086 c 0,-2.73711 -2.96302,-4.44752 -5.33269,-3.07919 -1.07281,0.61916 -1.74591,1.75144 -1.7768,3.03401 0,-2.69193 -2.963017,-4.40234 -5.333151,-3.03401 -1.072809,0.61916 -1.745449,1.75144 -1.776338,3.03401 0,-2.69193 -3.985826,-4.40234 -6.355501,-3.03401 -1.072809,0.61916 -1.745909,1.75144 -1.776797,2.98929 l -49.311643,0.0899"
     id="path6-2-7"
     sodipodi:nodetypes="ccccccccc" /><path
     style="fill:none;stroke:#bf0000;stroke-width:2.1;stroke-linecap:round;stroke-dasharray:none;stroke-opacity:1"
     d="m 159.3285,164.58518 -24.68543,-42.75642 c 2.37041,-1.36856 2.37016,-4.78981 3.2e-4,-6.15784 -1.07262,-0.6195 -2.38975,-0.63628 -3.51594,-0.0217 2.33129,-1.34596 2.33103,-4.76722 -0.039,-6.13566 -1.07261,-0.61949 -2.38951,-0.63588 -3.5157,-0.0213 2.33128,-1.34596 1.81962,-5.653 -0.55022,-7.02103 -1.07261,-0.6195 -2.38974,-0.63628 -3.4772,-0.0441 L 98.81163,59.766874"
     id="path6-2-7-9"
     sodipodi:nodetypes="ccccccccc" /><path
     style="fill:none;stroke:#bf0000;stroke-width:2.1;stroke-linecap:round;stroke-dasharray:none;stroke-opacity:1"
     d="M 98.811605,59.766854 74.126176,102.52328 c -2.370409,-1.36856 -5.333176,0.34229 -5.333006,3.07865 -2e-4,1.23865 0.643835,2.38772 1.739132,3.05576 -2.33128,-1.34597 -5.294046,0.36487 -5.294106,3.10163 -2e-4,1.23866 0.64407,2.38732 1.739367,3.05536 -2.331285,-1.34596 -5.805452,1.25066 -5.805287,3.98702 -2e-4,1.23866 0.643836,2.38772 1.700408,3.0334 L 38.29472,164.58518"
     id="path6-2-7-6"
     sodipodi:nodetypes="ccccccccc" /></g>&#10;</svg>
